<?xml version="1.0" standalone="no"?>
<!DOCTYPE svg PUBLIC "-//W3C//DTD SVG 20010904//EN"
 "http://www.w3.org/TR/2001/REC-SVG-20010904/DTD/svg10.dtd">
<svg version="1.0" xmlns="http://www.w3.org/2000/svg"
 width="32.000000pt" height="32.000000pt" viewBox="0 0 32.000000 32.000000"
 preserveAspectRatio="xMidYMid meet">

<g transform="translate(0.000000,32.000000) scale(0.100000,-0.100000)"
fill="#000000" stroke="none">
<path d="M114 309 c-78 -23 -128 -114 -104 -193 43 -144 242 -152 295 -11 47
121 -66 242 -191 204z m10 -94 c9 -35 58 -35 74 0 15 32 42 33 42 1 0 -13 6
-27 13 -29 9 -4 8 -8 -3 -16 -13 -10 -13 -12 0 -22 11 -8 12 -12 3 -16 -7 -2
-13 -16 -13 -30 0 -15 -5 -23 -12 -20 -7 2 -12 14 -10 25 5 31 -26 28 -38 -3
-5 -14 -14 -25 -20 -25 -6 0 -15 11 -20 25 -5 14 -14 25 -20 25 -5 0 -10 -11
-10 -25 0 -16 -6 -25 -15 -25 -9 0 -15 9 -15 24 0 13 -6 27 -12 29 -10 4 -9 8
2 16 13 10 13 12 0 22 -11 8 -12 12 -2 16 6 2 12 16 12 29 0 34 36 33 44 -1z"/>
<path d="M105 160 c3 -5 8 -10 11 -10 2 0 4 5 4 10 0 6 -5 10 -11 10 -5 0 -7
-4 -4 -10z"/>
<path d="M140 160 c0 -5 9 -10 20 -10 11 0 20 5 20 10 0 6 -9 10 -20 10 -11 0
-20 -4 -20 -10z"/>
<path d="M200 160 c0 -5 5 -10 10 -10 6 0 10 5 10 10 0 6 -4 10 -10 10 -5 0
-10 -4 -10 -10z"/>
</g>
</svg>
